<svg width="1000" height="995" viewBox="0 0 1000 995" fill="none" xmlns="http://www.w3.org/2000/svg"><path fill-rule="evenodd" clip-rule="evenodd" d="M500 895c217.676 0 394.763-173.691 400.088-389.971.136-5.521-4.354-10.029-9.876-10.029h-80.045c-5.523 0-9.983 4.499-10.165 10.019C794.715 666.066 662.426 795 500.008 795c-14.137 0-28.046-.977-41.662-2.866-4.838-.672-8.365-4.86-8.365-9.745V655c0-5.523-4.477-10-10-10h-80.052c-5.523 0-10 4.477-10 10v99.861c0 .002-.003.003-.004.002-.002-.001-.004.001-.004.003v104.317c0 4.074 2.467 7.752 6.27 9.216C400.822 885.581 449.311 895 500 895zM99.911 484.971c-.136 5.521 4.354 10.029 9.877 10.029h80.061c5.522 0 9.983-4.499 10.164-10.019C205.3 323.934 337.589 195 500.008 195c14.137 0 28.045.977 41.662 2.867 4.838.671 8.365 4.859 8.365 9.744V335c0 5.523 4.477 10 10 10h80.053c5.522 0 10-4.477 10-10V162l-.001-31.18c0-4.074-2.468-7.752-6.27-9.216C599.184 104.42 550.692 95 500 95 282.324 95 105.236 268.691 99.911 484.971zM510.02 744.803c-5.519.218-10.011-4.28-10.011-9.803l-.001-80c0-5.523 4.492-9.965 10.003-10.328 74.915-4.927 134.817-64.795 139.749-139.67.363-5.511 4.805-10.002 10.328-10.002h80.053c5.523 0 10.021 4.492 9.803 10.011-5.126 130.111-109.744 234.671-239.924 239.792zM259.875 495c-5.522 0-10.021-4.492-9.803-10.011 5.127-130.111 109.744-234.671 239.925-239.792 5.519-.218 10.011 4.28 10.011 9.803l-.001 80c0 5.523-4.49 9.965-10.002 10.328-74.915 4.927-134.817 64.795-139.749 139.67-.363 5.511-4.805 10.002-10.328 10.002h-80.053zm240.133 100c55.257 0 100.053-44.772 100.053-100s-44.796-100-100.053-100c-55.258 0-100.053 44.772-100.053 100s44.795 100 100.053 100zm365.294-263.648c2.906 6.47-1.92 13.648-9.013 13.648H710.114c-5.523 0-10-4.477-10-10V165.846c0-7.701 8.32-12.474 14.813-8.335 65.619 41.831 118.22 102.253 150.375 173.841zm-565.4 492.802c0 7.701-8.32 12.474-14.813 8.335-65.619-41.83-118.221-102.253-150.375-173.841-2.906-6.47 1.919-13.648 9.012-13.648h146.176c5.523 0 10 4.477 10 10v169.154z" fill="url(#b)" filter="url(#a)"/><defs><filter id="a" x="-20.092" y="0" width="1040.18" height="1040" filterUnits="userSpaceOnUse" color-interpolation-filters="sRGB"><feFlood flood-opacity="0" result="BackgroundImageFix"/><feColorMatrix in="SourceAlpha" values="0 0 0 0 0 0 0 0 0 0 0 0 0 0 0 0 0 0 127 0"/><feOffset dy="25"/><feGaussianBlur stdDeviation="60"/><feColorMatrix values="0 0 0 0 0 0 0 0 0 0 0 0 0 0 0 0 0 0 0.15 0"/><feBlend in2="BackgroundImageFix" result="effect1_dropShadow"/><feBlend in="SourceGraphic" in2="effect1_dropShadow" result="shape"/></filter><linearGradient id="b" x1="100" y1="95" x2="900" y2="895" gradientUnits="userSpaceOnUse"><stop stop-color="#F02FC2"/><stop offset="1" stop-color="#6094EA"/></linearGradient></defs></svg>