<svg width="1000" height="1000" viewBox="0 0 1000 1000" xmlns="http://www.w3.org/2000/svg" xmlns:xlink="http://www.w3.org/1999/xlink"><title>logo-ikbsp-white</title><desc>Created using Figma</desc><g transform="translate(-1017 245)"><clipPath id="a" clip-rule="evenodd"><path d="M1017-245h1000V755H1017V-245z" fill="#FFF"/></clipPath><g clip-path="url(#a)"><use xlink:href="#b" transform="translate(1337.2 -120.794)" fill="#DE5144"/><use xlink:href="#c" transform="translate(1517 -120.794)" fill="#B54C42"/><use xlink:href="#d" transform="translate(1238 -223)" fill="#DE5144"/><g><use xlink:href="#e" transform="translate(1209 484)" fill="#FFF"/></g></g></g><defs><path id="b" fill-rule="evenodd" d="M359.6 151.403v3.252h-.017c-1.293 125.326-77.27 230.277-179.783 260.217C77.286 384.932 1.31 279.981.017 154.655H0V55.524h15.314l.005-.016c1.091.011 2.185.017 3.281.017 70.921 0 132.252-22.64 161.515-55.525 29.87 32.449 92.039 54.921 164.167 55.513a.056.056 0 0 1 .004.012H359.6v95.878z"/><path id="c" fill-rule="evenodd" d="M0 414.872c102.513-29.94 178.49-134.891 179.784-260.217h.016v-99.13h-15.313l-.004-.012C92.354 54.92 30.186 32.449.316 0L0 .352v414.52z"/><path id="d" fill-rule="evenodd" d="M558 234.477V84.182h-23.763l-.006-.018C422.308 83.268 325.839 49.197 279.489 0 234.081 49.859 138.912 84.182 28.862 84.182c-1.7 0-3.397-.008-5.09-.024l-.01.024H0V234.477h.026C2.033 424.487 119.927 583.606 278.999 629c159.073-45.393 276.968-204.512 278.975-394.523H558zm-62 13.99V130.15h-18.482l-.005-.014c-87.052-.706-162.082-27.528-198.133-66.257-35.298 39.229-109.258 66.242-194.795 66.271h-.273c-1.277 0-2.552-.007-3.823-.019l-.007.019H62V248.467h.02C63.581 398.05 155.277 523.313 279 559.049c123.723-35.736 215.419-160.999 216.98-310.582h.02z"/><path id="e" d="M17.469 51h28v79c0 .667-.2 3.6-.6 8.8l-.4 4.4h.8c.666-2.267 1.133-3.733 1.4-4.4 1.6-4 2.866-6.933 3.8-8.8l38-79h27v140h-28v-79c0-2.4.133-5.333.4-8.8l.6-4.4h-.8c-.667 2.267-1.134 3.733-1.4 4.4-.934 2.533-2.2 5.467-3.8 8.8l-38 79h-27V51zM233.5 193c-6.8 0-12.333-1.867-16.6-5.6-4.267-3.733-7.067-8.533-8.4-14.4l-7-32c-1.067-4.667-2.733-8-5-10s-5.6-3-10-3h-9v63h-28V51h28v59h6c5.067 0 8.733-1 11-3 2.267-2.133 3.933-5.8 5-11l6-27c1.333-5.867 4.133-10.667 8.4-14.4 4.267-3.733 9.8-5.6 16.6-5.6 4.133 0 8.2.533 12.2 1.6l4.8 1.4-2 16h-1l-1.2-.4c-1.6-.4-2.533-.6-2.8-.6-3.6 0-5.933 2.333-7 7l-5 23c-1.867 7.733-5.867 13.533-12 17.4a27.728 27.728 0 0 1-9 3.6c3.333.533 6.667 1.8 10 3.8 6.8 4 11.133 10.067 13 18.2l6 28c1.067 4.667 3.467 7 7.2 7l2.6-.4 1.2-.6h1l2 16-4.4 1.6c-3.467.933-7.667 1.4-12.6 1.4zm39.047-142h84v18h-56v36h13c18.133 0 31.667 3.867 40.6 11.6s13.4 18.2 13.4 31.4c0 28.667-18 43-54 43h-41V51zm41 122c9.067 0 15.667-2 19.8-6 4.133-4.133 6.2-10.467 6.2-19s-2.067-14.8-6.2-18.8c-4.133-4.133-10.733-6.2-19.8-6.2h-13v50h13zm127.922 20c-18.134 0-32-5.8-41.6-17.4-9.6-11.6-14.4-29.8-14.4-54.6 0-24.667 4.666-42.8 14-54.4 9.466-11.733 22.8-17.6 40-17.6 10.133 0 19.2 1.867 27.2 5.6 3.6 1.467 6.866 3.267 9.8 5.4l-9 16h-2c-1.467-1.333-3.6-2.8-6.4-4.4-5.867-3.067-11.734-4.6-17.6-4.6-8.8 0-15.667 4.067-20.6 12.2-4.934 8.133-7.4 22.067-7.4 41.8 0 19.867 2.533 33.867 7.6 42 5.2 8 12.666 12 22.4 12 6.133 0 12-1.467 17.6-4.4 2.933-1.733 5.066-3.267 6.4-4.6h2l9 16c-2.667 2.133-5.934 4-9.8 5.6-7.734 3.6-16.8 5.4-27.2 5.4zm58.031-2V51h98v140h-28V69h-42v122h-28z"/></defs></svg>