<svg width="558" height="629" viewBox="0 0 558 629" fill="none" xmlns="http://www.w3.org/2000/svg">
<path fill-rule="evenodd" clip-rule="evenodd" d="M458.8 253.609V256.861H458.783C457.49 382.187 381.513 487.138 279 517.078C176.486 487.138 100.51 382.187 99.217 256.861H99.2V157.73H114.514L114.519 157.714C115.61 157.725 116.704 157.731 117.8 157.731C188.721 157.731 250.052 135.091 279.315 102.206C309.185 134.655 371.354 157.127 443.482 157.719C443.484 157.723 443.485 157.727 443.486 157.731H458.8V253.609V253.609Z" fill="#DE5144"/>
<path fill-rule="evenodd" clip-rule="evenodd" d="M279 517.078C381.513 487.138 457.49 382.187 458.784 256.861H458.8V157.731H443.487L443.483 157.719C371.354 157.126 309.186 134.655 279.316 102.206L279 102.558V517.078V517.078Z" fill="#B54C42"/>
<path fill-rule="evenodd" clip-rule="evenodd" d="M558 234.477V84.182H534.237L534.231 84.164C422.308 83.268 325.839 49.197 279.489 0C234.081 49.859 138.912 84.182 28.862 84.182C27.162 84.182 25.465 84.174 23.772 84.158L23.762 84.182H0V234.477H0.026C2.033 424.487 119.927 583.606 278.999 629C438.072 583.607 555.967 424.488 557.974 234.477H558V234.477ZM496 248.467V130.15H477.518L477.513 130.136C390.461 129.43 315.431 102.608 279.38 63.879C244.082 103.108 170.122 130.121 84.585 130.15H84.312C83.035 130.15 81.76 130.143 80.489 130.131L80.482 130.15H62V248.467H62.02C63.581 398.05 155.277 523.313 279 559.049C402.723 523.313 494.419 398.05 495.98 248.467H496V248.467Z" fill="#DE5144"/>
</svg>
