<svg version="1" xmlns="http://www.w3.org/2000/svg" width="960" height="960" viewBox="0 0 720.000000 720.000000"><path d="M354.6 6c-3.2 3.3-6.2 6-6.7 6s-.9.3-.9.8c0 1-15.1 12.9-22.5 17.8-3.3 2.1-6.2 4.2-6.5 4.5-.3.3-2.1 1.4-4 2.4s-5.3 2.9-7.5 4.3-4.1 2.4-4.1 2.1c-.1-.2-1 .3-2 1.2-3.3 2.8-28.7 14.5-41.4 19.1-3 1.1-6.4 2.3-7.5 2.8-2.3 1-17 6.2-17 6 0-.1-.7.1-1.5.3-8.9 2.8-32.3 9-38 10.1-1.4.2-5.9 1.2-10 2.1-4.1.9-9.4 1.8-11.8 2-2.3.2-4.7.7-5.1 1-.5.3-2.9.7-5.2 1-4.9.6-11.1 1.4-14.9 2-1.4.2-5 .6-8 1-3 .3-7.3.8-9.5 1.1-4.5.6-13.3 1.2-28.2 1.8-5.7.3-10.6.6-11 .8-.5.2-12.2.3-26.1.3H39.9l.4 100.5c.3 55.3.7 102.3 1 104.5.3 2.2.8 7.6 1.2 12 .3 4.4 1 10.7 1.5 14 .5 3.3 1.2 8 1.5 10.5.3 2.5 1.2 8.3 2.1 13 .9 4.7 1.7 9.6 1.9 11 .8 5.4 5 23.6 7.6 32.9 1.1 4.2 2.3 8.5 2.5 9.6.5 2.9 11.2 35.5 12.4 38 .5 1.1 1.9 4.5 3 7.5 2.3 6.1 2 5.5 8.1 19.5 6.3 14.5 18.7 38.6 26.8 52.1 3.9 6.5 7.1 12.1 7.1 12.6 0 .4.3.8.8.8.4 0 1.6 1.7 2.7 3.7s2.5 4.1 3 4.7c.6.6 3.5 4.7 6.4 9.1 21.8 32 57.3 69.7 89.1 94.6 3.6 2.8 7.4 5.8 8.5 6.7 1.8 1.6 4.3 3.3 10 7.2 28.3 19.2 46.9 29.6 73 40.9 6.6 2.9 12.9 5.7 14 6.1 4.7 2.1 26.3 9.2 26.7 8.9.2-.1 1.3.3 2.6 1 4.1 2.2 6.4 2.1 14.6-.5 11.2-3.5 30.5-10.5 38.6-14.1 18.7-8.3 50.1-24.6 50.8-26.5.2-.4.8-.8 1.4-.8 1.2 0 23.4-14.8 31.3-20.9 3.3-2.5 7.1-5.4 8.5-6.3 1.4-.9 3.4-2.4 4.5-3.4 1.1-1.1 4.7-4.1 8-6.9 24.1-20.1 51.1-48.7 69.8-74 3.7-5 7-9.5 7.4-10 .5-.6 2.4-3.3 4.2-6 1.9-2.8 4-5.3 4.5-5.7.6-.4.8-.8.4-.8-.6 0 4.4-8.2 7-11.5 2.8-3.6 15-25.9 22.8-41.5 8.3-16.7 19.2-42.3 23-54 .8-2.5 1.9-5.4 2.4-6.5.9-2.1 3-8.8 3.4-10.8.2-1.2 3.5-12.1 4.4-14.7.3-.8.6-2.1.8-2.8.1-.7 1.4-5.8 2.9-11.4 1.5-5.6 2.9-11.1 3.1-12.2.2-1.2.8-4.4 1.4-7.1 1.4-6.8 1.7-8.6 2.4-13.1.4-2.2.8-4.6 1.1-5.4.4-1.5 1.2-6.5 2-13 .3-1.9.7-5.1 1-7 .3-1.9.8-6 1.1-9 .2-3 .7-6.6.9-7.9 1.5-8.9 2-35.1 2-120.6v-97l-20.5-.2c-25.8-.3-43.2-1.1-60-2.8-3.6-.4-7.8-.8-9.5-.9-7.3-.7-16-1.8-16.6-2.1-.3-.2-3.7-.7-7.5-1-3.8-.4-7.2-.9-7.6-1.2-.5-.2-2.7-.6-5-.9-2.4-.3-5.1-.7-6-1-1-.3-3-.7-4.5-1-2.7-.4-20.2-4.2-23.3-4.9-2.5-.7-17.4-4.5-19-4.9-5.6-1.6-18.2-5.5-22.5-7.2-1.1-.4-2.6-.8-3.4-1-1.4-.3-9.9-3.5-17.1-6.4-2.5-1-6.5-2.7-9-3.7-7.3-2.9-36.5-17.9-41.4-21.2-2.4-1.7-4.7-3.1-5-3.1-.6 0-6.2-3.8-15.1-10.2-2.2-1.6-6.2-4.8-9-7.1-4.8-4.1-6.5-5.6-13.7-12.5l-3.4-3.3-5.8 6.1zm16.3 77c3.5 3 6.9 6 7.5 6.5 1 .9 2.8 2.2 12.5 8.8 1.4.9 3.4 2 4.4 2.3.9.4 1.7 1 1.7 1.4 0 1 30.2 15.9 39.5 19.6 7.8 3 26.2 9.4 28.5 9.9.8.2 3.5.9 6 1.6 9.9 2.8 16.7 4.5 21.5 5.3 1.7.3 4.1.8 5.5 1.2 3 .7 16 3 21.3 3.8 8.8 1.4 10.1 1.6 23.2 3.1 4.1.5 18.4 1.5 29 2 3.3.1 13.1.3 21.8.4l15.8.1-.4 79.2c-.2 43.6-.7 81.8-1 84.8-.4 3-.9 7.7-1.1 10.5-.3 2.7-.8 6.8-1.1 9-.3 2.2-.8 5.6-1 7.5-.2 1.9-.4 3.5-.5 3.5-.1 0-.3 1.6-.6 3.5-.6 5-4.3 23.5-6.1 30.5-.8 3.3-1.7 7.1-1.9 8.4-.3 1.3-.9 3.2-1.5 4.3-.5 1-.7 1.8-.4 1.8.4 0 .3.6-.2 1.2-.4.7-.9 2-1 2.9-.1.8-1.6 5.6-3.3 10.5-1.7 4.9-3.3 9.6-3.5 10.4-.2.8-.4 1.5-.5 1.5-.1 0-.3.7-.5 1.5s-2.2 6-4.5 11.5-4.2 10.6-4.3 11.2c0 .7-.4 1.3-.9 1.3-.4 0-.8.6-.8 1.2 0 1.3-13.2 28.2-16.1 32.8-.9 1.4-4 6.5-7 11.5-4.9 8.3-12.8 20.2-16.4 25-21.4 28.3-39.6 47.4-63 66.6-12.1 9.8-30.9 22.8-40.5 28-2.5 1.3-4.7 2.7-5 3-.5.6-18.9 10.2-20 10.4-.3.1-2.5 1.1-5 2.2-2.5 1.2-4.7 2.1-5 2.1-.3-.1-2.3.8-4.5 1.9-2.2 1.1-10.2 4.2-17.7 6.7l-13.8 4.7-13.7-4.7c-7.6-2.6-15.8-5.5-18.3-6.6-9.3-4.1-23.6-10.9-25-11.8-.8-.6-2.8-1.7-4.5-2.4-4.1-1.9-16.6-9.5-18.7-11.4-1-.8-1.8-1.2-1.8-.8 0 1.3-29.4-20.8-40.4-30.4-5.5-4.8-27.1-26.6-31.6-31.9-2.5-2.9-5.5-6.5-6.8-8-7.8-8.9-23.2-30.8-32.5-46.3-15.6-25.9-33-66.3-40.2-93.8-.2-.8-1.2-4.2-2.1-7.5-.9-3.3-1.8-6.7-1.9-7.5-.2-.8-.4-1.5-.5-1.5-.1 0-.3-1.1-.5-2.5s-1.5-8.1-2.9-15-2.8-15.2-3.1-18.5c-.4-3.3-.8-6.2-1-6.5-.2-.3-.7-4.4-1-9-.4-4.7-1-10.3-1.2-12.5-.3-2.2-.7-39.7-1-83.3l-.4-79.2 19.8-.1c20.3-.1 26.1-.3 41.8-1.4 11.6-.9 14.2-1.2 19-1.9 6.2-.8 12.8-1.8 15.5-2.1 13.3-1.8 36.8-7.3 53.5-12.5 9.8-3.1 25.1-8.6 26.9-9.7.6-.4 1.6-.8 2.1-.9 1.6-.2 21.2-9.9 27.5-13.5 6.5-3.7 15.4-9.5 19.2-12.3 1.4-1.2 4.1-3.2 5.9-4.6 1.9-1.4 6.7-5.7 10.9-9.7l7.5-7.2 2.1 2.2c1.1 1.2 4.9 4.7 8.3 7.7z"/><path d="M353.3 123.9c-3.9 3.8-10.7 9.3-15 12.2-4.3 3-8 5.6-8.3 5.9-1.6 1.6-29.6 15.9-32.4 16.5-.6.1-2.4.7-4 1.4-8.6 3.5-25.6 8.8-34.6 10.7-1.4.3-5 1.1-8 1.9-3 .7-7.1 1.6-9 1.9-1.9.3-4.6.8-6 1.1-1.4.3-4.3.8-6.5 1-2.2.3-5.7.8-7.9 1.1-3.7.5-6.1.7-20.6 2-3.6.3-15.4.7-26.2.8-10.9.1-20.1.5-20.4.9-.9.9-.8 115.4.1 129.7.9 14.5 1.7 22.1 3.5 33 .5 3 1.2 7.3 1.5 9.5 1.1 6.4 1.3 7.5 3.5 17 1.1 4.9 2.4 10.1 2.9 11.5.5 1.4 1.4 4.5 2.1 7 10.3 36.9 31.7 78.6 55.5 108.4 13.3 16.7 31.2 35 44.6 45.6 2.4 1.9 4.9 3.8 5.4 4.3 3.3 2.7 14.8 10.8 19.5 13.7 3 1.9 5.7 3.7 6 4 1.1 1.1 26.5 14.2 32.9 16.9 4.7 2 15.7 6 22.5 8.2l5.9 1.9 10.6-3.6c13-4.5 25.9-10.1 37.1-16.1 4.7-2.6 9.7-5.2 11.1-6 1.5-.7 3.2-2 3.9-2.8.7-.8 1.7-1.5 2.2-1.5 1.2 0 15.7-10.1 24.2-16.9 17.2-13.8 34.1-30.9 47.9-48.6 2.6-3.3 5.2-6.5 5.7-7.2 3-3.7 16.7-25.4 21.9-34.7 14.3-25.7 29.4-66.6 33.6-90.5.3-1.9.7-3.7.9-4 .2-.3.7-2.9 1-5.6.4-2.8.9-5.7 1.1-6.5.6-2.3 1.5-8.6 2.1-15.3.3-3.4.7-6.4.9-6.7 1.1-1.8 1.7-32.8 1.8-86v-59.4l-15.9-.2c-16.1-.3-31-1-37.4-1.9-3.7-.5-12.6-1.5-17.5-2.1-1.6-.1-3-.3-3-.4 0-.1-.9-.3-2-.4-7-1-32.4-6.2-35.5-7.4-.8-.3-2-.6-2.5-.7-.6-.2-6.7-2.1-13.5-4.4-24.6-8.3-44.5-18.3-61.2-30.8-6.3-4.8-6.5-4.9-12.9-11l-4.4-4.2-7.2 6.8z"/></svg>