<?xml version="1.0" standalone="no"?>
<!DOCTYPE svg PUBLIC "-//W3C//DTD SVG 20010904//EN"
 "http://www.w3.org/TR/2001/REC-SVG-20010904/DTD/svg10.dtd">
<svg version="1.0" xmlns="http://www.w3.org/2000/svg"
 width="629.000000pt" height="629.000000pt" viewBox="0 0 629.000000 629.000000"
 preserveAspectRatio="xMidYMid meet">
<metadata>
Created by potrace 1.11, written by Peter Selinger 2001-2013
</metadata>
<g transform="translate(0.000000,629.000000) scale(0.100000,-0.100000)"
fill="#000000" stroke="none">
<path d="M3115 6259 c-35 -38 -171 -157 -210 -184 -16 -11 -48 -35 -72 -52
-24 -18 -45 -33 -47 -33 -2 0 -33 -18 -67 -40 -129 -80 -458 -231 -574 -264
-5 -2 -17 -6 -25 -9 -63 -25 -354 -104 -410 -112 -14 -2 -26 -4 -27 -6 -4 -2
-10 -4 -78 -17 -142 -29 -209 -40 -275 -47 -26 -3 -111 -13 -170 -20 -123 -16
-344 -25 -603 -27 l-208 0 4 -872 c3 -789 6 -932 22 -1061 2 -22 7 -62 10 -90
6 -52 12 -96 19 -130 2 -11 7 -42 10 -68 4 -27 9 -56 11 -65 42 -192 56 -260
60 -274 12 -51 49 -181 66 -230 11 -31 22 -65 24 -75 6 -33 101 -282 136 -360
10 -23 19 -44 19 -47 0 -7 103 -219 110 -226 3 -3 17 -30 32 -60 30 -59 74
-139 100 -180 63 -100 156 -242 182 -276 17 -23 40 -54 50 -69 11 -14 27 -35
35 -45 9 -10 25 -31 36 -46 134 -185 451 -500 668 -663 40 -29 73 -57 75 -62
2 -5 9 -9 16 -9 7 0 21 -9 31 -20 10 -11 24 -20 32 -20 7 0 13 -3 13 -8 0 -4
33 -27 73 -52 39 -24 74 -48 75 -52 2 -4 7 -8 12 -8 7 0 118 -62 180 -100 44
-27 310 -149 384 -176 149 -55 270 -95 296 -97 17 -2 73 11 128 30 53 19 112
39 131 45 116 34 513 228 613 299 14 10 28 19 31 19 6 0 193 126 242 163 248
189 480 408 640 601 22 27 45 54 50 60 25 26 168 219 229 309 77 115 206 331
206 346 0 6 5 11 10 11 6 0 10 9 10 19 0 11 3 21 8 23 15 6 181 367 208 453 2
6 28 81 58 168 30 87 55 160 55 162 1 3 1 6 2 8 0 1 2 9 4 17 1 8 13 51 24 95
30 109 41 157 55 225 3 14 7 36 10 50 13 59 16 77 22 115 5 41 10 68 18 120 2
17 7 53 10 80 4 28 8 68 11 90 2 22 7 71 10 110 3 38 8 71 10 74 3 2 0 10 -6
17 -6 8 -6 14 0 18 6 4 10 319 11 860 l1 854 -140 0 c-77 0 -144 3 -150 7 -6
3 -11 1 -11 -5 0 -6 -4 -9 -9 -6 -4 3 -68 8 -142 11 -74 4 -150 8 -169 10 -19
2 -73 7 -120 10 -47 4 -94 9 -105 11 -11 2 -40 6 -65 9 -38 5 -130 19 -255 40
-16 3 -50 10 -75 15 -84 19 -95 22 -115 25 -42 6 -258 67 -371 104 -190 63
-277 98 -450 182 -71 34 -130 66 -132 71 -2 4 -8 8 -13 8 -20 0 -230 140 -308
205 -13 11 -29 25 -35 30 -7 6 -37 34 -67 62 l-54 53 -30 -31z m143 -715 c13
-11 36 -29 50 -42 15 -12 35 -25 45 -28 9 -3 17 -10 17 -15 0 -5 10 -14 23
-19 12 -6 54 -30 92 -53 39 -24 85 -50 103 -58 17 -7 32 -17 32 -21 0 -5 8 -8
18 -8 10 0 22 -4 28 -9 12 -12 240 -103 324 -129 105 -32 171 -50 240 -66 56
-13 113 -26 130 -31 3 0 28 -5 55 -10 28 -4 57 -10 65 -11 8 -2 31 -6 50 -8
19 -3 51 -7 70 -10 160 -23 354 -36 568 -37 l144 -1 -5 -716 c-3 -395 -7 -737
-11 -762 -3 -25 -8 -65 -11 -90 -8 -70 -17 -133 -21 -155 -3 -11 -7 -36 -10
-55 -4 -28 -24 -126 -49 -239 -23 -105 -136 -446 -154 -464 -6 -6 -11 -21 -11
-34 0 -13 -4 -23 -10 -23 -5 0 -9 -3 -7 -8 3 -11 -46 -122 -55 -122 -5 0 -8
-7 -8 -15 0 -14 -31 -76 -95 -190 -16 -27 -33 -59 -39 -70 -6 -10 -17 -25 -23
-33 -7 -7 -13 -20 -13 -28 0 -8 -4 -14 -10 -14 -5 0 -10 -4 -10 -10 0 -11
-157 -238 -180 -260 -23 -22 -110 -134 -110 -141 0 -6 -4 -7 -10 -4 -5 3 -10
2 -10 -3 0 -10 -189 -203 -250 -257 -58 -51 -182 -149 -240 -190 -30 -22 -57
-42 -60 -45 -3 -3 -16 -12 -30 -20 -14 -8 -59 -35 -101 -60 -42 -25 -107 -61
-145 -80 -38 -19 -72 -39 -76 -45 -4 -5 -8 -6 -8 -2 0 5 -12 1 -27 -7 -63 -34
-165 -75 -270 -110 l-113 -38 -95 31 c-517 169 -1020 532 -1368 990 -32 42
-63 83 -70 92 -7 8 -16 22 -22 31 -5 8 -28 42 -49 74 -152 229 -286 506 -381
789 -39 115 -102 345 -110 400 -2 11 -8 45 -14 75 -7 30 -14 78 -17 105 -3 28
-7 57 -10 65 -3 8 -7 35 -10 60 -2 25 -7 68 -10 95 -4 28 -8 373 -11 767 l-4
716 173 1 c160 0 324 6 408 15 124 13 163 18 178 21 9 1 37 6 62 10 25 4 54 9
65 11 10 2 37 6 60 9 128 19 510 131 593 174 9 5 74 37 144 70 70 34 169 89
220 124 107 72 117 80 207 164 l66 62 45 -43 c25 -24 56 -52 68 -62z"/>
<path d="M3100 5224 c-24 -25 -59 -57 -79 -72 -20 -15 -38 -30 -41 -33 -15
-17 -161 -105 -246 -148 -94 -47 -265 -117 -302 -125 -9 -1 -24 -6 -32 -9 -21
-8 -161 -45 -193 -51 -15 -3 -35 -7 -45 -10 -9 -3 -33 -7 -52 -10 -19 -3 -44
-7 -55 -10 -11 -2 -45 -7 -75 -11 -30 -3 -66 -8 -80 -10 -86 -12 -168 -17
-345 -20 -110 -2 -203 -4 -207 -4 -8 -1 -3 -1213 5 -1251 3 -14 8 -50 11 -80
8 -66 20 -141 45 -270 44 -218 164 -553 268 -745 38 -70 96 -170 102 -175 3
-3 12 -16 19 -30 20 -39 153 -222 179 -247 13 -12 23 -25 23 -29 0 -15 240
-259 301 -305 18 -15 43 -35 54 -45 75 -70 273 -197 420 -270 92 -46 285 -124
346 -139 23 -6 158 33 224 64 11 6 43 20 70 31 59 26 153 73 198 100 17 11 39
23 47 27 18 9 155 99 178 118 9 7 53 42 97 76 193 152 410 398 555 628 83 134
193 344 206 396 3 14 10 25 15 25 5 0 8 3 7 8 -3 7 12 49 35 102 5 14 12 30
13 35 2 6 19 61 39 124 19 63 37 123 39 135 3 12 16 73 30 136 13 63 27 140
31 170 4 30 9 66 12 80 13 87 17 260 18 764 l0 569 -165 3 c-91 1 -192 5 -225
8 -33 3 -87 8 -120 11 -33 3 -82 10 -110 15 -27 5 -66 12 -85 14 -19 3 -42 7
-50 10 -8 3 -31 7 -50 10 -49 8 -67 12 -130 29 -238 67 -347 110 -550 219 -82
44 -228 153 -286 215 l-21 22 -43 -45z"/>
</g>
</svg>
